<svg width="1024" height="1024" viewBox="0 0 1024 1024" fill="none" xmlns="http://www.w3.org/2000/svg">
<path fill-rule="evenodd" clip-rule="evenodd" d="M404.882 167.169C423.72 147.084 445.319 133.6 469.641 126.661C486.329 121.896 497.577 106.582 497.577 89.5164C497.577 63.6393 472.279 44.7716 446.975 52.0203C427.72 57.5237 409.212 65.638 391.47 76.3914C354.932 98.5174 326.015 128.054 304.711 164.994C295.578 180.836 288.424 197.071 283.22 213.694C274.56 241.394 295.184 269.509 324.696 269.509C344.696 269.509 362.201 256.131 366.882 237.045C373.362 210.626 385.993 187.317 404.882 167.169Z" fill="#E5007D"/>
<path fill-rule="evenodd" clip-rule="evenodd" d="M588.141 141.968C611.272 156.112 629.556 175.461 642.986 199.999C649.465 211.845 654.376 224.283 657.727 237.313C662.573 256.217 679.734 269.509 699.521 269.509C728.408 269.509 749.262 242.059 740.915 214.82C738.516 207 735.689 199.272 732.424 191.629C720.082 162.726 702.957 137.116 681.065 114.785C659.173 92.4543 633.708 74.8617 604.678 62.0145C595.959 58.1645 587.081 54.8857 578.054 52.1992C552.396 44.5487 526.423 63.0016 526.423 89.4082V89.6127C526.423 106.789 537.841 121.872 554.515 126.878C566.177 130.375 577.388 135.396 588.141 141.968Z" fill="white"/>
<path fill-rule="evenodd" clip-rule="evenodd" d="M404.827 395.519C386.551 375.79 374.092 353.18 367.414 327.74C362.429 308.765 344.993 295.509 325.031 295.509C295.315 295.509 274.528 323.809 283.222 351.708C288.415 368.394 295.537 384.643 304.596 400.449C325.913 437.645 354.848 467.214 391.407 489.133C408.808 499.571 426.94 507.495 445.797 512.947C471.683 520.427 497.577 500.966 497.577 474.468C497.577 457.008 486.086 441.414 469.065 436.413C444.951 429.334 423.526 415.719 404.827 395.519Z" fill="white"/>
<path fill-rule="evenodd" clip-rule="evenodd" d="M643.911 360.453C630.403 386.071 611.746 406.196 587.956 420.854C577.458 427.327 566.553 432.3 555.241 435.822C538.157 441.133 526.423 456.552 526.423 474.197C526.423 500.851 552.337 520.411 578.316 512.966C597.28 507.542 615.429 499.646 632.741 489.257C669.182 467.414 697.957 438.041 719.044 401.145C728.555 384.522 735.899 367.3 741.112 349.472C749.028 322.381 727.59 295.509 698.965 295.509C679.965 295.509 663.475 307.681 657.555 325.269C653.536 337.208 649.796 349.296 643.911 360.453Z" fill="#E5007D"/>
<path d="M210.401 873.772H147.546L83.1503 777.795C81.9178 775.946 79.9664 771.889 77.2961 765.624H76.5258V873.772H26.7654V652.854H76.5258V757.305H77.2961C78.5286 754.429 80.5826 750.321 83.4584 744.98L144.465 652.854H203.777L126.748 758.229L210.401 873.772ZM379.248 873.772H330.72V786.114C330.72 761.67 321.99 749.448 304.53 749.448C296.109 749.448 289.176 752.683 283.733 759.154C278.289 765.624 275.568 773.841 275.568 783.803V873.772H226.886V716.018H275.568V740.975H276.184C287.789 721.769 304.684 712.166 326.869 712.166C361.788 712.166 379.248 733.837 379.248 777.178V873.772ZM493.096 877.624C466.804 877.624 446.109 870.28 431.011 855.593C416.016 840.804 408.519 820.777 408.519 795.511C408.519 769.424 416.324 749.037 431.936 734.351C447.547 719.561 468.652 712.166 495.253 712.166C521.443 712.166 541.984 719.561 556.876 734.351C571.768 749.037 579.214 768.5 579.214 792.738C579.214 818.928 571.511 839.623 556.106 854.823C540.803 870.023 519.799 877.624 493.096 877.624ZM494.329 749.448C482.826 749.448 473.89 753.402 467.523 761.311C461.155 769.219 457.971 780.414 457.971 794.895C457.971 825.193 470.193 840.342 494.637 840.342C517.951 840.342 529.608 824.782 529.608 793.663C529.608 764.186 517.848 749.448 494.329 749.448ZM839.263 716.018L793.816 873.772H742.669L719.406 781.338C717.866 775.176 716.993 768.449 716.787 761.156H715.863C715.144 769.167 714.117 775.689 712.782 780.722L687.824 873.772H637.294L592.771 716.018H642.378L664.1 818.928C665.127 823.755 665.897 829.609 666.41 836.49H667.335C667.848 829.301 668.773 823.241 670.108 818.312L697.222 716.018H743.593L767.934 818.928C768.55 821.496 769.269 827.452 770.091 836.799H771.169C771.683 830.842 772.504 824.885 773.634 818.928L794.124 716.018H839.263Z" fill="white"/>
<path d="M887.639 691.06C879.422 691.06 872.695 688.647 867.457 683.82C862.219 678.89 859.6 672.882 859.6 665.795C859.6 658.503 862.219 652.546 867.457 647.925C872.695 643.303 879.422 640.992 887.639 640.992C895.958 640.992 902.685 643.303 907.82 647.925C913.058 652.546 915.677 658.503 915.677 665.795C915.677 673.19 913.058 679.249 907.82 683.974C902.685 688.698 895.958 691.06 887.639 691.06ZM911.672 873.772H862.99V716.018H911.672V873.772ZM977.3 691.06C969.084 691.06 962.356 688.647 957.118 683.82C951.881 678.89 949.262 672.882 949.262 665.795C949.262 658.503 951.881 652.546 957.118 647.925C962.356 643.303 969.084 640.992 977.3 640.992C985.619 640.992 992.346 643.303 997.481 647.925C1002.72 652.546 1005.34 658.503 1005.34 665.795C1005.34 673.19 1002.72 679.249 997.481 683.974C992.346 688.698 985.619 691.06 977.3 691.06ZM1001.33 873.772H952.651V716.018H1001.33V873.772Z" fill="#E5007D"/>
</svg>
