<svg width="1132" height="512" viewBox="0 0 1132 512" fill="none" xmlns="http://www.w3.org/2000/svg">
<path d="M231.738 401H162.012L90.5762 294.53C89.209 292.479 87.0443 287.979 84.082 281.029H83.2275V401H28.0273V155.932H83.2275V271.801H84.082C85.4492 268.611 87.7279 264.053 90.918 258.129L158.594 155.932H224.39L138.94 272.826L231.738 401ZM419.043 401H365.21V303.759C365.21 276.643 355.526 263.085 336.157 263.085C326.815 263.085 319.124 266.674 313.086 273.852C307.048 281.029 304.028 290.144 304.028 301.195V401H250.024V226H304.028V253.686H304.712C317.586 232.38 336.328 221.728 360.938 221.728C399.674 221.728 419.043 245.767 419.043 293.847V401ZM545.337 405.272C516.17 405.272 493.213 397.126 476.465 380.834C459.831 364.428 451.514 342.211 451.514 314.184C451.514 285.245 460.173 262.629 477.49 246.337C494.808 229.931 518.221 221.728 547.729 221.728C576.782 221.728 599.569 229.931 616.089 246.337C632.609 262.629 640.869 284.219 640.869 311.107C640.869 340.16 632.324 363.118 615.234 379.979C598.258 396.841 574.959 405.272 545.337 405.272ZM546.704 263.085C533.944 263.085 524.032 267.471 516.968 276.244C509.904 285.017 506.372 297.436 506.372 313.5C506.372 347.11 519.93 363.915 547.046 363.915C572.909 363.915 585.84 346.654 585.84 312.133C585.84 279.434 572.795 263.085 546.704 263.085ZM929.346 226L878.931 401H822.192L796.387 298.461C794.678 291.625 793.709 284.162 793.481 276.073H792.456C791.659 284.96 790.519 292.195 789.038 297.777L761.353 401H705.298L655.908 226H710.938L735.034 340.16C736.174 345.515 737.028 352.009 737.598 359.643H738.623C739.193 351.667 740.218 344.945 741.699 339.477L771.777 226H823.218L850.22 340.16C850.903 343.008 851.701 349.617 852.612 359.984H853.809C854.378 353.376 855.29 346.768 856.543 340.16L879.272 226H929.346Z" fill="white"/>
<path d="M983.073 198.314C973.959 198.314 966.496 195.637 960.686 190.282C954.875 184.813 951.97 178.148 951.97 170.287C951.97 162.198 954.875 155.59 960.686 150.463C966.496 145.336 973.959 142.772 983.073 142.772C992.302 142.772 999.764 145.336 1005.46 150.463C1011.27 155.59 1014.18 162.198 1014.18 170.287C1014.18 178.49 1011.27 185.212 1005.46 190.453C999.764 195.694 992.302 198.314 983.073 198.314ZM1009.73 401H955.729V226H1009.73V401ZM1082.54 198.314C1073.42 198.314 1065.96 195.637 1060.15 190.282C1054.34 184.813 1051.43 178.148 1051.43 170.287C1051.43 162.198 1054.34 155.59 1060.15 150.463C1065.96 145.336 1073.42 142.772 1082.54 142.772C1091.76 142.772 1099.23 145.336 1104.92 150.463C1110.73 155.59 1113.64 162.198 1113.64 170.287C1113.64 178.49 1110.73 185.212 1104.92 190.453C1099.23 195.694 1091.76 198.314 1082.54 198.314ZM1109.2 401H1055.19V226H1109.2V401Z" fill="#E5007D"/>
</svg>
